<svg width="32" height="33" viewBox="0 0 32 33" fill="none" xmlns="http://www.w3.org/2000/svg">
<path fill-rule="evenodd" clip-rule="evenodd" d="M18.6667 13.6807H7.49067L10.1573 8.34733H21.8427L22.8067 10.2767C23.1373 10.9353 23.9373 11.2047 24.596 10.874C25.2547 10.5433 25.5227 9.74333 25.1933 9.08466L23.86 6.418C23.6333 5.966 23.172 5.68066 22.6667 5.68066H9.33333C8.828 5.68066 8.36667 5.966 8.14 6.418L4.14 14.418C4.13333 14.434 4.13067 14.4513 4.12267 14.4673C4.11067 14.4967 4.104 14.526 4.092 14.5553C4.044 14.6873 4.016 14.8233 4.01067 14.962C4.00933 14.9807 4 14.9953 4 15.014V23.014C4 23.0993 4.03333 23.174 4.048 23.254C4.01867 23.3927 4 23.534 4 23.6807V25.014C4 26.114 4.9 27.014 6 27.014H7.33333C8.43333 27.014 9.33333 26.114 9.33333 25.014V24.3473H17.3333C18.0693 24.3473 18.6667 23.75 18.6667 23.014C18.6667 22.278 18.0693 21.6807 17.3333 21.6807H7.33333H6.66667V20.3473H9.33333C10.0693 20.3473 10.6667 19.75 10.6667 19.014C10.6667 18.278 10.0693 17.6807 9.33333 17.6807H6.66667V16.3473H18.6667C19.4027 16.3473 20 15.75 20 15.014C20 14.278 19.4027 13.6807 18.6667 13.6807ZM28.2109 20.6449L28.1949 20.6329C27.5683 20.1783 26.7669 19.8529 25.6709 19.6076L25.4429 19.5623C24.8736 19.4263 24.4536 19.2556 24.1949 19.0556C23.9323 18.8529 23.9323 18.7369 23.9323 18.6356C23.9323 18.3623 24.1496 18.1543 24.2416 18.0769C24.4883 17.8756 24.8509 17.7356 25.1829 17.7143L25.3976 17.7129C25.9763 17.7369 26.4643 18.0649 27.1469 18.5676C27.4429 18.7676 27.8163 18.8329 28.1736 18.7423L28.6923 18.5663L28.9296 18.1729C29.2789 17.5903 29.1296 16.8236 28.6029 16.4663C28.1443 16.1209 27.4576 15.6036 26.5776 15.3289V14.7063C26.5776 13.3023 25.3656 13.2796 25.2949 13.2796H25.2936L24.7389 13.3103L24.4069 13.6463C24.0363 14.0236 24.0443 14.4849 24.0483 14.7063V15.3276C22.4696 15.8089 21.4056 17.1263 21.3909 18.6356C21.3909 19.6156 21.8443 20.4943 22.6669 21.1129C23.2469 21.5489 24.0149 21.8756 24.9536 22.0836L25.1989 22.1329C25.8963 22.2876 26.3963 22.4796 26.6843 22.7036C26.9789 22.9303 27.0043 23.0943 27.0043 23.2436C27.0043 23.5556 26.7936 23.7943 26.6163 23.9409C26.3096 24.1956 25.8803 24.3449 25.4416 24.3529L25.2656 24.3556C24.3269 24.2876 23.4723 23.5703 23.2309 23.3503C22.9856 23.1316 22.6643 23.0236 22.3043 23.0329L21.6763 23.1169L21.3669 23.5503C20.9829 24.0849 21.0603 24.8409 21.5429 25.2729C21.9763 25.6716 22.8696 26.3796 24.0483 26.7316V27.3583C24.0443 27.5343 24.0336 28.0009 24.4149 28.3863L24.8296 28.7489H25.3016C25.3536 28.7489 26.5776 28.7329 26.5776 27.3196V26.7769C28.3443 26.3156 29.5309 24.9076 29.5443 23.2436C29.5443 22.2143 29.0709 21.2916 28.2109 20.6449Z" fill="#6A6977"/>
</svg>
