<svg width="33" height="33" viewBox="0 0 33 33" fill="none" xmlns="http://www.w3.org/2000/svg">
<path fill-rule="evenodd" clip-rule="evenodd" d="M23.7687 5.42511C25.9653 7.01726 27.593 9.27243 28.4121 11.8588L28.9842 10.8155C29.0556 10.6792 29.1533 10.5584 29.2717 10.4602C29.3902 10.362 29.527 10.2883 29.6741 10.2434C29.8919 10.1723 30.1257 10.1663 30.3469 10.2261C30.5681 10.2858 30.767 10.4088 30.9193 10.5799C31.0194 10.6945 31.0991 10.8254 31.1549 10.967C31.1714 11.118 31.1714 11.2703 31.1549 11.4213C31.1357 11.5738 31.0901 11.7218 31.0203 11.8588L29.203 15.5439C29.1001 15.7307 28.9563 15.8918 28.7823 16.0151C28.603 16.1194 28.4006 16.1772 28.1933 16.1834C28.0118 16.1944 27.8309 16.1535 27.6717 16.0656L23.9192 14.1473C23.6623 13.9978 23.4703 13.7578 23.3808 13.4742C23.3034 13.1908 23.3347 12.8887 23.4686 12.6272C23.6024 12.3657 23.8292 12.1637 24.1043 12.0607C24.3799 11.9511 24.687 11.9511 24.9625 12.0607L26.2077 12.7002C25.6189 10.5509 24.3423 8.65363 22.5731 7.29865C20.7762 5.92316 18.5763 5.17781 16.3134 5.17781C14.0505 5.17781 11.8506 5.92316 10.0537 7.29865C8.28079 8.67963 7.01466 10.6084 6.45269 12.7843C6.40185 12.9338 6.32016 13.071 6.2129 13.187C6.10564 13.3029 5.97522 13.3951 5.83008 13.4574C5.55778 13.6074 5.2372 13.6437 4.93825 13.5583C4.64903 13.4606 4.40819 13.2559 4.26516 12.9862C4.12076 12.7116 4.09052 12.3911 4.18103 12.0944C4.94972 9.49257 6.5332 7.20618 8.6985 5.57162C10.8638 3.93706 13.4966 3.04065 16.2094 3.01427C18.9223 2.9879 21.572 3.83295 23.7687 5.42511ZM9.09455 27.121C11.2781 28.7496 13.9103 29.6661 16.6331 29.746H16.6668C19.4305 29.6756 22.1025 28.7398 24.3063 27.0705C26.4872 25.4614 28.1062 23.2066 28.9337 20.6257C28.9666 20.4761 28.9666 20.3211 28.9337 20.1714C28.9145 20.0189 28.8689 19.8709 28.7991 19.7339C28.7323 19.6003 28.6342 19.4848 28.5131 19.3974C28.3985 19.2922 28.2598 19.2171 28.1092 19.1786C27.9595 19.1458 27.8045 19.1458 27.6549 19.1786C27.5023 19.1978 27.3543 19.2434 27.2174 19.3132C27.0816 19.384 26.9615 19.4813 26.864 19.5993C26.769 19.7145 26.695 19.8455 26.6452 19.9863C26.2204 21.6361 25.3909 23.154 24.2319 24.4026C23.0728 25.6511 21.6208 26.5911 20.0071 27.1373C18.3934 27.6836 16.669 27.8189 14.9899 27.531C13.3107 27.2432 11.7299 26.5413 10.3902 25.4888C8.65567 24.1503 7.40356 22.284 6.82288 20.1714L8.06809 20.7772C8.35388 20.8941 8.67414 20.8941 8.95993 20.7772C9.25033 20.6724 9.49063 20.4622 9.63302 20.1882C9.74991 19.9024 9.74991 19.5822 9.63302 19.2964C9.52825 19.006 9.31799 18.7657 9.04407 18.6233L5.25796 16.8228C5.11565 16.7566 4.96059 16.7223 4.80363 16.7223C4.64667 16.7223 4.49161 16.7566 4.3493 16.8228C4.19675 16.8741 4.05841 16.9606 3.94545 17.0752C3.82779 17.1824 3.73577 17.3147 3.67621 17.4622L1.90936 21.6858C1.80886 21.9573 1.80886 22.2558 1.90936 22.5272C2.0281 22.798 2.24434 23.0142 2.51514 23.133C2.66069 23.1867 2.81434 23.2151 2.96947 23.2171C3.1941 23.2214 3.41548 23.1631 3.6089 23.0488C3.8017 22.9278 3.95403 22.7521 4.04641 22.544L4.65219 21.1137C5.51887 23.5047 7.06236 25.5919 9.09455 27.121ZM15.4048 9.3346V10.0918C14.7844 10.2648 14.2136 10.5819 13.739 11.0173C13.1925 11.5699 12.8234 12.273 12.6788 13.0366C12.5311 13.7823 12.6072 14.5551 12.8976 15.2577C13.2017 15.9712 13.7115 16.5779 14.3618 17.0005C15.0121 17.4231 15.7736 17.6423 16.5491 17.6304C16.8244 17.6602 17.0863 17.765 17.3063 17.9333C17.5511 18.0891 17.7397 18.319 17.8448 18.5895C17.9649 18.853 17.9944 19.1488 17.9289 19.4309C17.867 19.6877 17.7327 19.9213 17.5419 20.104C17.3286 20.3018 17.0677 20.4409 16.7847 20.5078C16.5016 20.5518 16.212 20.5229 15.9433 20.4237C15.6767 20.3121 15.4486 20.1249 15.2871 19.8852C15.1214 19.6486 15.0332 19.3664 15.0346 19.0775C15.0545 18.9121 15.0391 18.7445 14.9894 18.5855C14.9397 18.4265 14.8569 18.2799 14.7463 18.1553C14.6358 18.0307 14.5001 17.931 14.3483 17.8627C14.1964 17.7944 14.0317 17.7591 13.8652 17.7591C13.6986 17.7591 13.534 17.7944 13.3821 17.8627C13.2302 17.931 13.0945 18.0307 12.984 18.1553C12.8735 18.2799 12.7906 18.4265 12.7409 18.5855C12.6912 18.7445 12.6758 18.9121 12.6957 19.0775C12.6888 19.9035 12.9464 20.7101 13.4309 21.3792C13.9153 22.0484 14.6011 22.5449 15.388 22.7963V23.5367C15.3681 23.7021 15.3836 23.8697 15.4333 24.0287C15.483 24.1877 15.5658 24.3343 15.6763 24.4589C15.7868 24.5835 15.9225 24.6832 16.0744 24.7515C16.2263 24.8198 16.391 24.8551 16.5575 24.8551C16.724 24.8551 16.8887 24.8198 17.0406 24.7515C17.1925 24.6832 17.3282 24.5835 17.4387 24.4589C17.5492 24.3343 17.632 24.1877 17.6817 24.0287C17.7314 23.8697 17.7469 23.7021 17.727 23.5367V22.729C18.3101 22.5413 18.8405 22.2184 19.2751 21.7867C19.6322 21.4317 19.9157 21.0096 20.1091 20.5446C20.3025 20.0797 20.4021 19.5811 20.4021 19.0775C20.4021 18.5739 20.3025 18.0753 20.1091 17.6104C19.9157 17.1454 19.6322 16.7233 19.2751 16.3683C18.5442 15.6596 17.5672 15.2616 16.5491 15.2577C16.2261 15.2448 15.9149 15.1332 15.6573 14.938C15.4176 14.7765 15.2304 14.5484 15.1188 14.2818C15.0428 14.0065 15.0428 13.7157 15.1188 13.4404C15.1884 13.1633 15.3273 12.9085 15.5226 12.7C15.7101 12.5385 15.9362 12.4283 16.1789 12.3803C16.461 12.316 16.7564 12.3456 17.0202 12.4644C17.2862 12.5689 17.5148 12.7506 17.6765 12.9861C17.8281 13.2284 17.9096 13.508 17.9121 13.7938C17.9134 13.9478 17.9453 14.1 18.0059 14.2416C18.0666 14.3831 18.1548 14.5112 18.2655 14.6183C18.3751 14.7302 18.506 14.8192 18.6505 14.8799C18.795 14.9406 18.9501 14.9719 19.1068 14.9719C19.2635 14.9719 19.4186 14.9406 19.5631 14.8799C19.7076 14.8192 19.8385 14.7302 19.9482 14.6183C20.0588 14.5112 20.147 14.3831 20.2077 14.2416C20.2684 14.1 20.3003 13.9478 20.3015 13.7938C20.2958 13.0327 20.0677 12.2899 19.6453 11.6567C19.238 11.0282 18.652 10.5359 17.9626 10.2433L17.727 10.1423V9.26729C17.7275 9.11702 17.6981 8.96816 17.6403 8.82946C17.5825 8.69075 17.4975 8.565 17.3904 8.45959C17.1658 8.23813 16.8645 8.1116 16.5491 8.10622C16.2349 8.13431 15.9445 8.28553 15.7414 8.52689C15.6343 8.6323 15.5494 8.75806 15.4916 8.89676C15.4338 9.03547 15.4043 9.18433 15.4048 9.3346Z" fill="#6A6977"/>
<path d="M28.4121 11.8588L28.2929 11.8965L28.3812 12.1752L28.5217 11.9189L28.4121 11.8588ZM23.7687 5.42511L23.842 5.3239L23.7687 5.42511ZM28.9842 10.8155L29.0938 10.8756L29.095 10.8735L28.9842 10.8155ZM29.2717 10.4602L29.1919 10.364V10.364L29.2717 10.4602ZM29.6741 10.2434L29.7106 10.363L29.7129 10.3622L29.6741 10.2434ZM30.3469 10.2261L30.3795 10.1054L30.3469 10.2261ZM30.9193 10.5799L31.0135 10.4977L31.0127 10.4968L30.9193 10.5799ZM31.1549 10.967L31.2792 10.9534L31.2773 10.9367L31.2712 10.9211L31.1549 10.967ZM31.1549 11.4213L31.2789 11.4369L31.2792 11.4349L31.1549 11.4213ZM31.0203 11.8588L30.9089 11.802L30.9082 11.8035L31.0203 11.8588ZM29.203 15.5439L29.3126 15.6043L29.3151 15.5992L29.203 15.5439ZM28.7823 16.0151L28.8454 16.1236L28.8546 16.1171L28.7823 16.0151ZM28.1933 16.1834L28.1896 16.0584L28.1858 16.0586L28.1933 16.1834ZM27.6717 16.0656L27.7322 15.9561L27.7286 15.9543L27.6717 16.0656ZM23.9192 14.1473L23.8563 14.2555L23.8624 14.2586L23.9192 14.1473ZM23.3808 13.4742L23.2601 13.5072L23.2616 13.5118L23.3808 13.4742ZM23.4686 12.6272L23.5798 12.6842L23.4686 12.6272ZM24.1043 12.0607L24.1482 12.1778L24.1505 12.1769L24.1043 12.0607ZM24.9625 12.0607L25.0199 11.949L25.0087 11.9446L24.9625 12.0607ZM26.2077 12.7002L26.1506 12.8114L26.4034 12.9411L26.3283 12.6671L26.2077 12.7002ZM22.5731 7.29865L22.6491 7.19941L22.6491 7.19939L22.5731 7.29865ZM10.0537 7.29865L9.97771 7.19939L9.97688 7.20004L10.0537 7.29865ZM6.45269 12.7843L6.57137 12.8246L6.57372 12.8156L6.45269 12.7843ZM6.2129 13.187L6.30466 13.2719L6.30466 13.2719L6.2129 13.187ZM5.83008 13.4574L5.78053 13.342L5.76976 13.3479L5.83008 13.4574ZM4.93825 13.5583L4.89819 13.6769L4.90393 13.6785L4.93825 13.5583ZM4.26516 12.9862L4.15453 13.0444L4.15473 13.0448L4.26516 12.9862ZM4.18103 12.0944L4.30059 12.1308L4.3009 12.1298L4.18103 12.0944ZM8.6985 5.57162L8.62319 5.47186L8.6985 5.57162ZM16.2094 3.01427L16.2106 3.13927L16.2094 3.01427ZM16.6331 29.746L16.6294 29.871H16.6331V29.746ZM9.09455 27.121L9.01939 27.2209L9.01981 27.2212L9.09455 27.121ZM16.6668 29.746V29.8711L16.6699 29.871L16.6668 29.746ZM24.3063 27.0705L24.2321 26.9699L24.2308 26.9709L24.3063 27.0705ZM28.9337 20.6257L29.0533 20.6641L29.0558 20.6525L28.9337 20.6257ZM28.9337 20.1714L28.8092 20.1871L28.8116 20.1982L28.9337 20.1714ZM28.7991 19.7339L28.6873 19.7898L28.6878 19.7907L28.7991 19.7339ZM28.5131 19.3974L28.4285 19.4894L28.4339 19.4944L28.4399 19.4987L28.5131 19.3974ZM28.1092 19.1786L28.1402 19.0574L28.136 19.0565L28.1092 19.1786ZM27.6549 19.1786L27.6706 19.3031L27.6817 19.3007L27.6549 19.1786ZM27.2174 19.3132L27.1606 19.2019L27.1596 19.2024L27.2174 19.3132ZM26.864 19.5993L26.7676 19.5197L26.7675 19.5198L26.864 19.5993ZM26.6452 19.9863L26.5269 19.9445L26.5242 19.9551L26.6452 19.9863ZM24.2319 24.4026L24.3235 24.4876L24.2319 24.4026ZM20.0071 27.1373L19.967 27.0189L20.0071 27.1373ZM10.3902 25.4888L10.4675 25.3905L10.4666 25.3898L10.3902 25.4888ZM6.82288 20.1714L6.87757 20.059L6.62913 19.9381L6.70235 20.2045L6.82288 20.1714ZM8.06809 20.7772L8.0133 20.8898L8.02077 20.8929L8.06809 20.7772ZM8.95993 20.7772L8.91747 20.6595L8.91261 20.6615L8.95993 20.7772ZM9.63302 20.1882L9.74439 20.2461L9.74871 20.2356L9.63302 20.1882ZM9.63302 19.2964L9.51533 19.3388L9.51732 19.3437L9.63302 19.2964ZM9.04407 18.6233L9.10175 18.5123L9.09775 18.5104L9.04407 18.6233ZM5.25796 16.8228L5.31165 16.7099L5.3107 16.7095L5.25796 16.8228ZM4.3493 16.8228L4.3894 16.942L4.40203 16.9361L4.3493 16.8228ZM3.94545 17.0752L4.02974 17.1678L4.03448 17.163L3.94545 17.0752ZM3.67621 17.4622L3.79154 17.5105L3.79213 17.509L3.67621 17.4622ZM1.90936 21.6858L1.79395 21.6376L1.79214 21.6424L1.90936 21.6858ZM1.90936 22.5272L1.79194 22.5707L1.79488 22.5774L1.90936 22.5272ZM2.51514 23.133L2.46486 23.2477L2.47188 23.2503L2.51514 23.133ZM2.96947 23.2171L2.97185 23.0921L2.97107 23.0921L2.96947 23.2171ZM3.6089 23.0488L3.67252 23.1565L3.67535 23.1547L3.6089 23.0488ZM4.04641 22.544L4.16067 22.5948L4.16151 22.5928L4.04641 22.544ZM4.65219 21.1137L4.7697 21.0711L4.66123 20.7719L4.53708 21.065L4.65219 21.1137ZM15.4048 10.0918L15.4384 10.2122L15.5298 10.1867V10.0918H15.4048ZM15.4048 9.3346H15.5298L15.5298 9.33413L15.4048 9.3346ZM13.739 11.0173L13.6544 10.9251L13.6501 10.9294L13.739 11.0173ZM12.6788 13.0366L12.8015 13.0609L12.8017 13.0598L12.6788 13.0366ZM12.8976 15.2577L12.7821 15.3055L12.7826 15.3068L12.8976 15.2577ZM14.3618 17.0005L14.4299 16.8957L14.3618 17.0005ZM16.5491 17.6304L16.5625 17.5061L16.5549 17.5053L16.5472 17.5054L16.5491 17.6304ZM17.3063 17.9333L17.2301 18.0329L17.2392 18.0387L17.3063 17.9333ZM17.8448 18.5895L17.7281 18.6348L17.731 18.6414L17.8448 18.5895ZM17.9289 19.4309L18.0504 19.4602L18.0507 19.4592L17.9289 19.4309ZM17.5419 20.104L17.6269 20.1956L17.6283 20.1942L17.5419 20.104ZM16.7847 20.5078L16.8039 20.6317L16.8134 20.6295L16.7847 20.5078ZM15.9433 20.4237L15.895 20.5391L15.9 20.5409L15.9433 20.4237ZM15.2871 19.8852L15.3907 19.8153L15.3895 19.8135L15.2871 19.8852ZM15.0346 19.0775L14.9105 19.0626L14.9097 19.0697L14.9096 19.0769L15.0346 19.0775ZM14.7463 18.1553L14.6528 18.2383L14.6528 18.2383L14.7463 18.1553ZM14.3483 17.8627L14.297 17.9767L14.3483 17.8627ZM12.984 18.1553L13.0775 18.2383V18.2383L12.984 18.1553ZM12.6957 19.0775L12.8207 19.0785L12.8207 19.0705L12.8198 19.0626L12.6957 19.0775ZM15.388 22.7963H15.513V22.705L15.4261 22.6772L15.388 22.7963ZM15.388 23.5367L15.5121 23.5516L15.513 23.5442V23.5367H15.388ZM15.4333 24.0287L15.5526 23.9914L15.5526 23.9914L15.4333 24.0287ZM15.6763 24.4589L15.5828 24.5418L15.5828 24.5418L15.6763 24.4589ZM16.0744 24.7515L16.0231 24.8655L16.0744 24.7515ZM17.0406 24.7515L16.9893 24.6375L17.0406 24.7515ZM17.4387 24.4589L17.5322 24.5418L17.5322 24.5418L17.4387 24.4589ZM17.6817 24.0287L17.801 24.066L17.801 24.066L17.6817 24.0287ZM17.727 23.5367H17.602V23.5442L17.6029 23.5516L17.727 23.5367ZM17.727 22.729L17.6887 22.61L17.602 22.6379V22.729H17.727ZM19.2751 21.7867L19.3632 21.8754L19.3632 21.8753L19.2751 21.7867ZM20.1091 17.6104L19.9937 17.6584L20.1091 17.6104ZM19.2751 16.3683L19.3632 16.2797L19.3621 16.2786L19.2751 16.3683ZM16.5491 15.2577L16.5441 15.3827L16.5486 15.3827L16.5491 15.2577ZM15.6573 14.938L15.7329 14.8382L15.7271 14.8344L15.6573 14.938ZM15.1188 14.2818L14.9983 14.315L15.0004 14.3227L15.0035 14.33L15.1188 14.2818ZM15.1188 13.4404L15.2393 13.4737L15.24 13.4709L15.1188 13.4404ZM15.5226 12.7L15.4406 12.6048L15.4314 12.6146L15.5226 12.7ZM16.1789 12.3803L16.2032 12.503L16.2067 12.5022L16.1789 12.3803ZM17.0202 12.4644L16.9688 12.5785L16.9746 12.5808L17.0202 12.4644ZM17.6765 12.9861L17.7826 12.9197L17.7795 12.9153L17.6765 12.9861ZM17.9121 13.7938L18.0371 13.7928V13.7927L17.9121 13.7938ZM18.0059 14.2416L18.1208 14.1923L18.1208 14.1923L18.0059 14.2416ZM18.2655 14.6183L18.3548 14.5308L18.3524 14.5285L18.2655 14.6183ZM18.6505 14.8799L18.6989 14.7646H18.6989L18.6505 14.8799ZM19.9482 14.6183L19.8612 14.5285L19.8589 14.5308L19.9482 14.6183ZM20.3015 13.7938L20.4265 13.7948L20.4265 13.7928L20.3015 13.7938ZM19.6453 11.6567L19.5404 11.7247L19.5413 11.7261L19.6453 11.6567ZM17.9626 10.2433L17.9133 10.3582L17.9137 10.3583L17.9626 10.2433ZM17.727 10.1423H17.602V10.2247L17.6777 10.2572L17.727 10.1423ZM17.727 9.26729L17.602 9.26682V9.26729H17.727ZM17.6403 8.82946L17.5249 8.87753L17.6403 8.82946ZM17.3904 8.45959L17.3027 8.54861L17.3028 8.54867L17.3904 8.45959ZM16.5491 8.10622L16.5512 7.98053L16.538 7.98171L16.5491 8.10622ZM15.7414 8.52689L15.8295 8.61637L15.837 8.60738L15.7414 8.52689ZM15.4916 8.89676L15.6069 8.94484L15.4916 8.89676ZM28.5313 11.8211C27.704 9.20917 26.0603 6.93175 23.842 5.3239L23.6953 5.52632C25.8703 7.10276 27.4819 9.33569 28.2929 11.8965L28.5313 11.8211ZM28.8746 10.7554L28.3025 11.7987L28.5217 11.9189L29.0938 10.8756L28.8746 10.7554ZM29.1919 10.364C29.0608 10.4728 28.9525 10.6066 28.8735 10.7576L29.095 10.8735C29.1586 10.7518 29.2458 10.6441 29.3515 10.5564L29.1919 10.364ZM29.6377 10.1238C29.4746 10.1736 29.3231 10.2552 29.1919 10.364L29.3515 10.5564C29.4572 10.4688 29.5793 10.403 29.7106 10.363L29.6377 10.1238ZM30.3795 10.1054C30.1349 10.0393 29.8763 10.0459 29.6353 10.1246L29.7129 10.3622C29.9076 10.2987 30.1166 10.2933 30.3143 10.3467L30.3795 10.1054ZM31.0127 10.4968C30.8442 10.3075 30.6241 10.1715 30.3795 10.1054L30.3143 10.3467C30.512 10.4002 30.6898 10.5101 30.826 10.6631L31.0127 10.4968ZM31.2712 10.9211C31.2102 10.7663 31.123 10.6231 31.0135 10.4977L30.8252 10.6622C30.9159 10.766 30.9881 10.8846 31.0386 11.0128L31.2712 10.9211ZM31.2792 11.4349C31.2967 11.2749 31.2967 11.1134 31.2792 10.9534L31.0307 10.9806C31.0462 11.1225 31.0462 11.2657 31.0307 11.4077L31.2792 11.4349ZM31.1317 11.9156C31.2081 11.7658 31.2579 11.6038 31.2789 11.4369L31.0309 11.4057C31.0135 11.5438 30.9722 11.6779 30.9089 11.802L31.1317 11.9156ZM29.3151 15.5992L31.1324 11.9141L30.9082 11.8035L29.0909 15.4887L29.3151 15.5992ZM28.8546 16.1171C29.0439 15.9829 29.2005 15.8076 29.3125 15.6043L29.0935 15.4836C28.9997 15.6539 28.8686 15.8007 28.71 15.9131L28.8546 16.1171ZM28.1971 16.3083C28.4251 16.3015 28.6479 16.2379 28.8451 16.1232L28.7194 15.9071C28.5582 16.0008 28.3761 16.0529 28.1896 16.0584L28.1971 16.3083ZM27.6113 16.175C27.7912 16.2744 27.9957 16.3206 28.2009 16.3081L28.1858 16.0586C28.0279 16.0682 27.8706 16.0326 27.7321 15.9562L27.6113 16.175ZM23.8624 14.2586L27.6148 16.1769L27.7286 15.9543L23.9761 14.036L23.8624 14.2586ZM23.2616 13.5118C23.3604 13.825 23.5725 14.0901 23.8564 14.2553L23.9821 14.0393C23.752 13.9054 23.5801 13.6905 23.5 13.4366L23.2616 13.5118ZM23.3573 12.5703C23.2092 12.8595 23.1746 13.1937 23.2602 13.5071L23.5014 13.4413C23.4322 13.188 23.4602 12.9179 23.5798 12.6842L23.3573 12.5703ZM24.0605 11.9437C23.7562 12.0575 23.5054 12.281 23.3573 12.5703L23.5798 12.6842C23.6995 12.4504 23.9022 12.2698 24.1481 12.1778L24.0605 11.9437ZM25.0087 11.9446C24.7035 11.8232 24.3634 11.8232 24.0581 11.9446L24.1505 12.1769C24.3964 12.0791 24.6704 12.0791 24.9163 12.1769L25.0087 11.9446ZM26.2648 12.589L25.0196 11.9495L24.9054 12.1719L26.1506 12.8114L26.2648 12.589ZM22.4971 7.39789C24.2446 8.73626 25.5056 10.6102 26.0872 12.7332L26.3283 12.6671C25.7323 10.4915 24.44 8.571 22.6491 7.19941L22.4971 7.39789ZM16.3134 5.30281C18.5488 5.30281 20.722 6.03911 22.4971 7.39791L22.6491 7.19939C20.8304 5.80721 18.6038 5.05281 16.3134 5.05281V5.30281ZM10.1297 7.39791C11.9047 6.03911 14.0779 5.30281 16.3134 5.30281V5.05281C14.023 5.05281 11.7964 5.80721 9.97771 7.19939L10.1297 7.39791ZM6.57372 12.8156C7.12879 10.6664 8.37938 8.76128 10.1305 7.39726L9.97688 7.20004C8.18221 8.59797 6.90053 10.5504 6.33166 12.753L6.57372 12.8156ZM6.30466 13.2719C6.42381 13.1431 6.51456 12.9907 6.57104 12.8245L6.33434 12.7441C6.28914 12.877 6.2165 12.999 6.12114 13.1021L6.30466 13.2719ZM5.8794 13.5722C6.04063 13.503 6.18552 13.4007 6.30466 13.2719L6.12114 13.1021C6.02577 13.2052 5.90981 13.2871 5.78077 13.3425L5.8794 13.5722ZM4.90393 13.6785C5.2346 13.773 5.5892 13.7328 5.89041 13.5669L5.76976 13.3479C5.52635 13.482 5.2398 13.5145 4.97257 13.4381L4.90393 13.6785ZM4.15473 13.0448C4.31272 13.3427 4.57876 13.5688 4.89824 13.6768L4.97826 13.4399C4.7193 13.3524 4.50366 13.1691 4.37559 12.9277L4.15473 13.0448ZM4.06146 12.0579C3.96136 12.3862 3.9948 12.7407 4.15453 13.0444L4.3758 12.928C4.24672 12.6826 4.21969 12.3961 4.30059 12.1308L4.06146 12.0579ZM8.62319 5.47186C6.43653 7.12254 4.83742 9.43149 4.06115 12.059L4.3009 12.1298C5.06201 9.55366 6.62988 7.28982 8.77381 5.67139L8.62319 5.47186ZM16.2082 2.88928C13.4686 2.91591 10.8098 3.82117 8.62319 5.47186L8.77381 5.67139C10.9178 4.05295 13.5245 3.16538 16.2106 3.13927L16.2082 2.88928ZM23.842 5.3239C21.6237 3.71604 18.9478 2.86264 16.2082 2.88928L16.2106 3.13927C18.8967 3.11315 21.5203 3.94987 23.6953 5.52632L23.842 5.3239ZM16.6368 29.6211C13.9396 29.5419 11.3323 28.634 9.16928 27.0208L9.01981 27.2212C11.224 28.8651 13.8809 29.7903 16.6294 29.871L16.6368 29.6211ZM16.6668 29.621H16.6331V29.871H16.6668V29.621ZM24.2308 26.9709C22.0479 28.6244 19.4012 29.5513 16.6636 29.6211L16.6699 29.871C19.4598 29.7999 22.1571 28.8553 24.3817 27.1702L24.2308 26.9709ZM28.8147 20.5876C27.9952 23.1434 26.3918 25.3764 24.2321 26.9699L24.3805 27.1711C26.5825 25.5464 28.2172 23.2697 29.0528 20.6639L28.8147 20.5876ZM28.8116 20.1982C28.8406 20.3302 28.8406 20.4669 28.8116 20.5989L29.0558 20.6525C29.0925 20.4852 29.0925 20.3119 29.0558 20.1446L28.8116 20.1982ZM28.6878 19.7907C28.751 19.9148 28.7923 20.0489 28.8097 20.187L29.0577 20.1558C29.0367 19.9889 28.9869 19.827 28.9105 19.6771L28.6878 19.7907ZM28.4399 19.4987C28.5446 19.5743 28.6295 19.6742 28.6873 19.7898L28.9109 19.678C28.8351 19.5263 28.7237 19.3953 28.5862 19.296L28.4399 19.4987ZM28.0782 19.2997C28.2089 19.3331 28.3292 19.3983 28.4285 19.4894L28.5976 19.3053C28.4679 19.1862 28.3107 19.1011 28.1402 19.0575L28.0782 19.2997ZM27.6817 19.3007C27.8137 19.2717 27.9504 19.2717 28.0824 19.3007L28.136 19.0565C27.9687 19.0198 27.7954 19.0198 27.6281 19.0565L27.6817 19.3007ZM27.2741 19.4246C27.3982 19.3613 27.5323 19.32 27.6705 19.3026L27.6392 19.0546C27.4724 19.0756 27.3104 19.1255 27.1606 19.2019L27.2741 19.4246ZM26.9604 19.6789C27.0472 19.5737 27.1542 19.4871 27.2751 19.4241L27.1596 19.2024C27.009 19.2809 26.8757 19.3888 26.7676 19.5197L26.9604 19.6789ZM26.7631 20.028C26.808 19.9009 26.8748 19.7827 26.9605 19.6788L26.7675 19.5198C26.6633 19.6463 26.582 19.7901 26.5274 19.9446L26.7631 20.028ZM24.3235 24.4876C25.4967 23.2238 26.3362 21.6874 26.7663 20.0175L26.5242 19.9551C26.1045 21.5848 25.2852 23.0841 24.1403 24.3175L24.3235 24.4876ZM20.0472 27.2557C21.6805 26.7028 23.1503 25.7514 24.3235 24.4876L24.1403 24.3175C22.9954 25.5509 21.561 26.4793 19.967 27.0189L20.0472 27.2557ZM14.9688 27.6542C16.6684 27.9456 18.4138 27.8086 20.0472 27.2557L19.967 27.0189C18.373 27.5585 16.6697 27.6922 15.011 27.4078L14.9688 27.6542ZM10.313 25.5871C11.669 26.6524 13.2691 27.3629 14.9688 27.6542L15.011 27.4078C13.3523 27.1235 11.7907 26.4302 10.4675 25.3905L10.313 25.5871ZM6.70235 20.2045C7.29022 22.3433 8.55784 24.2327 10.3139 25.5877L10.4666 25.3898C8.75351 24.0679 7.5169 22.2247 6.94341 20.1383L6.70235 20.2045ZM8.12278 20.6648L6.87757 20.059L6.7682 20.2838L8.01341 20.8896L8.12278 20.6648ZM8.91261 20.6615C8.65715 20.766 8.37087 20.766 8.11541 20.6615L8.02077 20.8929C8.33689 21.0222 8.69113 21.0222 9.00725 20.8929L8.91261 20.6615ZM9.5221 20.1306C9.39421 20.3766 9.17836 20.5655 8.91751 20.6596L9.00235 20.8948C9.3223 20.7793 9.58705 20.5477 9.74393 20.2459L9.5221 20.1306ZM9.51732 19.3437C9.62181 19.5992 9.62181 19.8854 9.51732 20.1409L9.74871 20.2356C9.87801 19.9194 9.87801 19.5652 9.74871 19.2491L9.51732 19.3437ZM8.98641 18.7342C9.23246 18.8621 9.42133 19.078 9.51543 19.3388L9.7506 19.254C9.63518 18.934 9.40351 18.6693 9.10172 18.5124L8.98641 18.7342ZM5.20428 16.9357L8.99038 18.7362L9.09775 18.5104L5.31165 16.7099L5.20428 16.9357ZM4.80363 16.8473C4.94237 16.8473 5.07944 16.8776 5.20523 16.9361L5.3107 16.7095C5.15187 16.6356 4.97881 16.5973 4.80363 16.5973V16.8473ZM4.40203 16.9361C4.52782 16.8776 4.66489 16.8473 4.80363 16.8473V16.5973C4.62845 16.5973 4.45539 16.6356 4.29656 16.7095L4.40203 16.9361ZM4.03448 17.163C4.13369 17.0623 4.25518 16.9863 4.38915 16.9413L4.30944 16.7043C4.13832 16.7619 3.98314 16.8589 3.85641 16.9875L4.03448 17.163ZM3.79213 17.509C3.84466 17.3788 3.92583 17.2622 4.02962 17.1676L3.86128 16.9828C3.72974 17.1026 3.62687 17.2505 3.56029 17.4155L3.79213 17.509ZM2.02468 21.7341L3.79153 17.5105L3.5609 17.414L1.79405 21.6376L2.02468 21.7341ZM2.02659 22.4838C1.93645 22.2404 1.93645 21.9727 2.02659 21.7292L1.79214 21.6424C1.68127 21.9419 1.68127 22.2712 1.79214 22.5706L2.02659 22.4838ZM2.56533 23.0185C2.32327 22.9124 2.12998 22.7191 2.02384 22.477L1.79488 22.5774C1.92622 22.8769 2.16541 23.1161 2.46495 23.2475L2.56533 23.0185ZM2.97107 23.0921C2.83017 23.0903 2.69061 23.0645 2.55841 23.0157L2.47188 23.2503C2.63078 23.3089 2.79852 23.3399 2.96787 23.3421L2.97107 23.0921ZM3.54531 22.9412C3.37185 23.0437 3.1733 23.096 2.97185 23.0921L2.96709 23.3421C3.21489 23.3468 3.45912 23.2825 3.67249 23.1565L3.54531 22.9412ZM3.93216 22.4933C3.84988 22.6786 3.71419 22.8352 3.54245 22.943L3.67535 23.1547C3.88922 23.0205 4.05819 22.8255 4.16065 22.5948L3.93216 22.4933ZM4.53708 21.065L3.93131 22.4953L4.16151 22.5928L4.76729 21.1625L4.53708 21.065ZM9.1697 27.0211C7.1569 25.5066 5.62812 23.4393 4.7697 21.0711L4.53467 21.1563C5.40962 23.5701 6.96783 25.6772 9.01939 27.2209L9.1697 27.0211ZM15.5298 10.0918V9.3346H15.2798V10.0918H15.5298ZM13.8235 11.1094C14.2836 10.6873 14.8369 10.3799 15.4384 10.2122L15.3713 9.97141C14.7319 10.1497 14.1436 10.4765 13.6545 10.9252L13.8235 11.1094ZM12.8017 13.0598C12.9415 12.3207 13.2989 11.6401 13.8278 11.1052L13.6501 10.9294C13.0861 11.4997 12.7052 12.2253 12.556 13.0133L12.8017 13.0598ZM13.0131 15.21C12.7321 14.5302 12.6585 13.7824 12.8015 13.0609L12.5562 13.0123C12.4036 13.7822 12.4822 14.5801 12.7821 15.3055L13.0131 15.21ZM14.4299 16.8957C13.8004 16.4866 13.307 15.8993 13.0126 15.2087L12.7826 15.3068C13.0965 16.0431 13.6225 16.6692 14.2937 17.1053L14.4299 16.8957ZM16.5472 17.5054C15.7965 17.517 15.0594 17.3047 14.4299 16.8957L14.2937 17.1053C14.9649 17.5414 15.7507 17.7677 16.551 17.7554L16.5472 17.5054ZM17.3823 17.834C17.1441 17.6518 16.8606 17.5384 16.5625 17.5061L16.5356 17.7546C16.7883 17.782 17.0285 17.8781 17.2303 18.0325L17.3823 17.834ZM17.9613 18.5443C17.8466 18.249 17.6407 17.998 17.3734 17.8278L17.2392 18.0387C17.4615 18.1803 17.6328 18.3891 17.7283 18.6348L17.9613 18.5443ZM18.0507 19.4592C18.1224 19.1502 18.09 18.8263 17.9585 18.5377L17.731 18.6414C17.8397 18.8798 17.8664 19.1474 17.8072 19.4026L18.0507 19.4592ZM17.6283 20.1942C17.8364 19.995 17.9829 19.7402 18.0504 19.4602L17.8074 19.4016C17.7511 19.6351 17.6289 19.8475 17.4554 20.0137L17.6283 20.1942ZM16.8134 20.6295C17.1175 20.5576 17.3978 20.4081 17.6269 20.1956L17.4569 20.0123C17.2595 20.1954 17.018 20.3242 16.7559 20.3862L16.8134 20.6295ZM15.9 20.5409C16.1887 20.6475 16.4998 20.6786 16.8039 20.6313L16.7655 20.3843C16.5034 20.4251 16.2354 20.3982 15.9866 20.3064L15.9 20.5409ZM15.1834 19.9551C15.3585 20.215 15.6059 20.418 15.895 20.539L15.9916 20.3084C15.7475 20.2062 15.5386 20.0348 15.3907 19.8154L15.1834 19.9551ZM14.9096 19.0769C14.9081 19.3916 15.0042 19.699 15.1846 19.9569L15.3895 19.8135C15.2386 19.5981 15.1584 19.3411 15.1596 19.0781L14.9096 19.0769ZM14.8701 18.6228C14.9145 18.7649 14.9283 18.9148 14.9105 19.0626L15.1588 19.0924C15.1807 18.9095 15.1637 18.724 15.1087 18.5482L14.8701 18.6228ZM14.6528 18.2383C14.7516 18.3497 14.8257 18.4807 14.8701 18.6228L15.1087 18.5482C15.0537 18.3724 14.9621 18.2102 14.8399 18.0724L14.6528 18.2383ZM14.297 17.9767C14.4328 18.0378 14.554 18.1269 14.6528 18.2383L14.8399 18.0724C14.7176 17.9346 14.5675 17.8242 14.3995 17.7487L14.297 17.9767ZM13.8652 17.8841C14.014 17.8841 14.1612 17.9156 14.297 17.9767L14.3995 17.7487C14.2315 17.6731 14.0494 17.6341 13.8652 17.6341V17.8841ZM13.4333 17.9767C13.5691 17.9156 13.7163 17.8841 13.8652 17.8841V17.6341C13.6809 17.6341 13.4988 17.6731 13.3308 17.7487L13.4333 17.9767ZM13.0775 18.2383C13.1763 18.1269 13.2976 18.0378 13.4333 17.9767L13.3308 17.7487C13.1628 17.8242 13.0127 17.9346 12.8905 18.0724L13.0775 18.2383ZM12.8602 18.6228C12.9046 18.4807 12.9787 18.3497 13.0775 18.2383L12.8905 18.0724C12.7682 18.2102 12.6766 18.3724 12.6216 18.5482L12.8602 18.6228ZM12.8198 19.0626C12.802 18.9148 12.8158 18.7649 12.8602 18.6228L12.6216 18.5482C12.5666 18.724 12.5496 18.9095 12.5716 19.0924L12.8198 19.0626ZM13.5321 21.3059C13.0633 20.6584 12.814 19.8779 12.8207 19.0785L12.5707 19.0765C12.5636 19.9292 12.8296 20.7618 13.3296 21.4525L13.5321 21.3059ZM15.4261 22.6772C14.6646 22.434 14.0009 21.9534 13.5321 21.3059L13.3296 21.4525C13.8297 22.1433 14.5377 22.6559 15.35 22.9154L15.4261 22.6772ZM15.513 23.5367V22.7963H15.263V23.5367H15.513ZM15.5526 23.9914C15.5081 23.8493 15.4944 23.6994 15.5121 23.5516L15.2639 23.5218C15.2419 23.7047 15.259 23.8902 15.314 24.066L15.5526 23.9914ZM15.7698 24.3759C15.671 24.2645 15.597 24.1335 15.5526 23.9914L15.314 24.066C15.3689 24.2418 15.4606 24.404 15.5828 24.5418L15.7698 24.3759ZM16.1257 24.6375C15.9899 24.5764 15.8686 24.4873 15.7698 24.3759L15.5828 24.5418C15.705 24.6796 15.8551 24.79 16.0231 24.8655L16.1257 24.6375ZM16.5575 24.7301C16.4086 24.7301 16.2614 24.6986 16.1257 24.6375L16.0231 24.8655C16.1912 24.9411 16.3733 24.9801 16.5575 24.9801V24.7301ZM16.9893 24.6375C16.8536 24.6986 16.7064 24.7301 16.5575 24.7301V24.9801C16.7417 24.9801 16.9238 24.9411 17.0919 24.8655L16.9893 24.6375ZM17.3452 24.3759C17.2464 24.4873 17.1251 24.5764 16.9893 24.6375L17.0919 24.8655C17.2599 24.79 17.41 24.6796 17.5322 24.5418L17.3452 24.3759ZM17.5624 23.9914C17.518 24.1335 17.444 24.2645 17.3452 24.3759L17.5322 24.5418C17.6544 24.404 17.7461 24.2418 17.801 24.066L17.5624 23.9914ZM17.6029 23.5516C17.6206 23.6994 17.6069 23.8493 17.5624 23.9914L17.801 24.066C17.856 23.8902 17.8731 23.7047 17.8511 23.5218L17.6029 23.5516ZM17.602 22.729V23.5367H17.852V22.729H17.602ZM19.187 21.698C18.7664 22.1158 18.253 22.4283 17.6887 22.61L17.7653 22.848C18.3671 22.6542 18.9146 22.3209 19.3632 21.8754L19.187 21.698ZM19.9937 20.4966C19.8066 20.9463 19.5324 21.3546 19.187 21.698L19.3632 21.8753C19.732 21.5087 20.0248 21.0728 20.2245 20.5926L19.9937 20.4966ZM20.2771 19.0775C20.2771 19.5646 20.1808 20.0469 19.9937 20.4966L20.2245 20.5926C20.4242 20.1125 20.5271 19.5976 20.5271 19.0775H20.2771ZM19.9937 17.6584C20.1808 18.1081 20.2771 18.5904 20.2771 19.0775H20.5271C20.5271 18.5575 20.4242 18.0425 20.2245 17.5624L19.9937 17.6584ZM19.187 16.457C19.5324 16.8004 19.8066 17.2087 19.9937 17.6584L20.2245 17.5624C20.0248 17.0822 19.732 16.6463 19.3632 16.2797L19.187 16.457ZM16.5486 15.3827C17.5344 15.3865 18.4804 15.7719 19.1881 16.4581L19.3621 16.2786C18.608 15.5474 17.6 15.1367 16.5496 15.1327L16.5486 15.3827ZM15.5818 15.0377C15.8598 15.2483 16.1956 15.3687 16.5441 15.3826L16.5541 15.1328C16.2567 15.1209 15.97 15.0182 15.7327 14.8384L15.5818 15.0377ZM15.0035 14.33C15.1245 14.6192 15.3275 14.8665 15.5874 15.0417L15.7271 14.8344C15.5076 14.6865 15.3363 14.4776 15.2341 14.2335L15.0035 14.33ZM14.9983 13.4072C14.9163 13.7042 14.9163 14.018 14.9983 14.315L15.2393 14.2485C15.1693 13.995 15.1693 13.7272 15.2393 13.4737L14.9983 13.4072ZM15.4314 12.6146C15.2216 12.8386 15.0723 13.1123 14.9975 13.41L15.24 13.4709C15.3044 13.2144 15.4331 12.9785 15.6139 12.7855L15.4314 12.6146ZM16.1546 12.2577C15.8907 12.3099 15.6448 12.4297 15.441 12.6053L15.6042 12.7947C15.7753 12.6473 15.9816 12.5468 16.2031 12.5029L16.1546 12.2577ZM17.0716 12.3505C16.783 12.2204 16.4598 12.1881 16.1511 12.2584L16.2067 12.5022C16.4623 12.444 16.7299 12.4707 16.9689 12.5784L17.0716 12.3505ZM17.7795 12.9153C17.6037 12.6592 17.3551 12.4616 17.0659 12.3481L16.9746 12.5808C17.2173 12.6761 17.4259 12.8419 17.5735 13.0568L17.7795 12.9153ZM18.0371 13.7927C18.0344 13.4838 17.9463 13.1817 17.7825 12.9198L17.5705 13.0524C17.7099 13.2751 17.7848 13.5321 17.7871 13.7949L18.0371 13.7927ZM18.1208 14.1923C18.0667 14.066 18.0382 13.9302 18.0371 13.7928L17.7871 13.7948C17.7885 13.9654 17.8238 14.134 17.891 14.2908L18.1208 14.1923ZM18.3524 14.5285C18.2537 14.4329 18.175 14.3186 18.1208 14.1923L17.891 14.2908C17.9582 14.4476 18.056 14.5895 18.1785 14.7081L18.3524 14.5285ZM18.6989 14.7646C18.5698 14.7104 18.4528 14.6309 18.3547 14.5308L18.1762 14.7058C18.2975 14.8296 18.4423 14.928 18.6021 14.9951L18.6989 14.7646ZM19.1068 14.8469C18.9667 14.8469 18.8281 14.8189 18.6989 14.7646L18.6021 14.9951C18.7619 15.0623 18.9335 15.0969 19.1068 15.0969V14.8469ZM19.5147 14.7646C19.3856 14.8189 19.2469 14.8469 19.1068 14.8469V15.0969C19.2801 15.0969 19.4517 15.0623 19.6115 14.9951L19.5147 14.7646ZM19.8589 14.5308C19.7608 14.6309 19.6438 14.7104 19.5147 14.7646L19.6115 14.9951C19.7713 14.928 19.9161 14.8296 20.0375 14.7058L19.8589 14.5308ZM20.0928 14.1923C20.0387 14.3186 19.9599 14.4329 19.8612 14.5285L20.0351 14.7081C20.1577 14.5895 20.2554 14.4476 20.3226 14.2908L20.0928 14.1923ZM20.1765 13.7928C20.1754 13.9302 20.1469 14.066 20.0928 14.1923L20.3226 14.2908C20.3898 14.134 20.4251 13.9654 20.4265 13.7948L20.1765 13.7928ZM19.5413 11.7261C19.9502 12.339 20.171 13.058 20.1765 13.7947L20.4265 13.7928C20.4206 13.0074 20.1852 12.2408 19.7493 11.5874L19.5413 11.7261ZM17.9137 10.3583C18.5801 10.6412 19.1467 11.1171 19.5404 11.7247L19.7502 11.5888C19.3293 10.9393 18.7238 10.4306 18.0114 10.1282L17.9137 10.3583ZM17.6777 10.2572L17.9133 10.3582L18.0118 10.1284L17.7762 10.0274L17.6777 10.2572ZM17.602 9.26729V10.1423H17.852V9.26729H17.602ZM17.5249 8.87753C17.5763 9.00086 17.6025 9.13322 17.602 9.26682L17.852 9.26776C17.8526 9.10083 17.8199 8.93546 17.7557 8.78138L17.5249 8.87753ZM17.3028 8.54867C17.398 8.64239 17.4735 8.7542 17.5249 8.87753L17.7557 8.78138C17.6915 8.62729 17.5971 8.4876 17.4781 8.3705L17.3028 8.54867ZM16.547 8.2312C16.8303 8.23603 17.1009 8.34969 17.3027 8.54861L17.4782 8.37056C17.2307 8.12657 16.8987 7.98716 16.5512 7.98124L16.547 8.2312ZM15.837 8.60738C16.0189 8.39127 16.2789 8.25587 16.5602 8.23072L16.538 7.98171C16.1909 8.01274 15.8701 8.17979 15.6457 8.44641L15.837 8.60738ZM15.6069 8.94484C15.6583 8.82151 15.7339 8.7097 15.8291 8.61598L15.6537 8.43781C15.5347 8.5549 15.4404 8.6946 15.3762 8.84869L15.6069 8.94484ZM15.5298 9.33413C15.5293 9.20053 15.5556 9.06817 15.6069 8.94484L15.3762 8.84869C15.312 9.00277 15.2792 9.16814 15.2798 9.33506L15.5298 9.33413Z" fill="#6A6977"/>
</svg>
