<svg width="32" height="33" viewBox="0 0 32 33" fill="none" xmlns="http://www.w3.org/2000/svg">
<path d="M12.3281 15.2937C12.6722 15.2937 13.0021 15.1495 13.2454 14.8929C13.4887 14.6363 13.6254 14.2883 13.6254 13.9254C13.6254 13.5625 13.4887 13.2144 13.2454 12.9578C13.0021 12.7012 12.6722 12.557 12.3281 12.557H5.34887L7.9434 7.08379H19.3074L20.2544 9.06786C20.4233 9.3639 20.6921 9.58155 21.0068 9.67719C21.3216 9.77283 21.659 9.73938 21.9513 9.58349C22.2437 9.42759 22.4692 9.16084 22.5828 8.83678C22.6964 8.51271 22.6895 8.15529 22.5636 7.83635L21.2663 5.09972C21.1585 4.87407 20.9935 4.68436 20.7897 4.55153C20.5859 4.41869 20.3513 4.34793 20.1117 4.34717H7.1391C6.89954 4.34793 6.66488 4.41869 6.46109 4.55153C6.25731 4.68436 6.09232 4.87407 5.98452 5.09972L2.09273 13.3096C2.09108 13.3415 2.09108 13.3735 2.09273 13.4054C2.04199 13.5357 2.01557 13.675 2.0149 13.8159V22.0257C2.00275 22.1073 2.00275 22.1904 2.0149 22.272C1.99503 22.4172 1.99503 22.5647 2.0149 22.7099V24.0782C2.0149 24.6226 2.2199 25.1446 2.58483 25.5295C2.94976 25.9144 3.44471 26.1307 3.96079 26.1307H5.25806C5.74536 26.1143 6.20912 25.9055 6.55746 25.5457C6.90579 25.1858 7.11335 24.7012 7.1391 24.1877V23.5035H12.3281C12.6722 23.5035 13.0021 23.3594 13.2454 23.1028C13.4887 22.8461 13.6254 22.4981 13.6254 22.1352C13.6254 21.7723 13.4887 21.4243 13.2454 21.1677C13.0021 20.9111 12.6722 20.7669 12.3281 20.7669H4.54458V19.3986H7.1391C7.48316 19.3986 7.8131 19.2544 8.05638 18.9978C8.29967 18.7412 8.43636 18.3932 8.43636 18.0303C8.43636 17.6674 8.29967 17.3194 8.05638 17.0628C7.8131 16.8062 7.48316 16.662 7.1391 16.662H4.54458V15.2937H12.3281Z" fill="#6A6977"/>
<path d="M24.8346 18.0344C24.4881 18.1603 24.1566 18.1432 23.8392 17.9799C23.5218 17.8166 23.305 17.5516 23.1857 17.1862C23.0663 16.8207 23.0826 16.4711 23.2374 16.1363C23.3922 15.8015 23.6434 15.5728 23.9899 15.4469C24.3364 15.3211 24.6678 15.3382 24.9853 15.5015C25.3027 15.6648 25.5195 15.9297 25.6388 16.2952C25.7581 16.6607 25.7419 17.0103 25.5871 17.3451C25.4323 17.6799 25.1811 17.9086 24.8346 18.0344ZM25.6998 27.1991L29.8014 18.3289C29.9079 18.0985 29.9742 17.8393 29.9941 17.5535C30.014 17.2677 29.9838 16.9964 29.8993 16.7377L28.2627 11.7243C28.0864 11.1842 27.7596 10.7927 27.2773 10.5446C26.795 10.2965 26.3014 10.2659 25.7893 10.4519L21.0363 12.1781C20.791 12.2672 20.5697 12.4091 20.3685 12.6016C20.1672 12.7941 20.0143 13.0088 19.9078 13.2392L15.8062 22.1094C15.579 22.6007 15.5541 23.1235 15.7336 23.6733C15.9131 24.2232 16.2378 24.619 16.7036 24.8586L23.0933 28.1457C23.5591 28.3854 24.0547 28.4116 24.576 28.2223C25.0973 28.0329 25.4726 27.6904 25.6998 27.1991ZM23.6421 25.4139L18.4067 22.7206L22.1263 14.6766L26.0207 13.2622L27.3617 17.3699L23.6421 25.4139Z" fill="#6A6977"/>
</svg>
