<svg width="33" height="33" viewBox="0 0 33 33" fill="none" xmlns="http://www.w3.org/2000/svg">
<path d="M28.8448 8.97199C28.7841 8.82207 28.688 8.68909 28.5646 8.58447C28.4413 8.47984 28.2944 8.4067 28.1366 8.3713C27.9788 8.3359 27.8148 8.33931 27.6586 8.38123C27.5023 8.42315 27.3586 8.50234 27.2398 8.61199L22.2023 13.2607L20.0485 12.7982L19.586 10.6445L24.2348 5.60699C24.3444 5.48811 24.4236 5.3444 24.4655 5.1882C24.5074 5.03199 24.5108 4.86795 24.4755 4.71013C24.4401 4.55232 24.3669 4.40545 24.2623 4.28211C24.1577 4.15877 24.0247 4.06265 23.8748 4.00199C22.5084 3.44929 21.0273 3.2406 19.5614 3.39427C18.0956 3.54794 16.6899 4.05926 15.4679 4.88331C14.2459 5.70736 13.2449 6.81891 12.553 8.12031C11.8612 9.4217 11.4995 10.8731 11.4998 12.347C11.4981 13.5916 11.7535 14.8231 12.2498 15.9645L4.7235 22.472C4.70475 22.487 4.68725 22.5045 4.66975 22.5207C3.91952 23.271 3.49805 24.2885 3.49805 25.3495C3.49805 25.8748 3.60152 26.395 3.80256 26.8804C4.00361 27.3658 4.29828 27.8068 4.66975 28.1782C5.04123 28.5497 5.48224 28.8444 5.9676 29.0454C6.45295 29.2465 6.97316 29.35 7.4985 29.35C8.55949 29.35 9.57702 28.9285 10.3273 28.1782C10.3435 28.162 10.361 28.1432 10.376 28.1257L16.8823 20.597C18.2528 21.1986 19.7517 21.4489 21.2434 21.3252C22.735 21.2016 24.1723 20.7078 25.425 19.8887C26.6778 19.0696 27.7065 17.951 28.418 16.6341C29.1294 15.3173 29.5013 13.8438 29.4998 12.347C29.5017 11.1902 29.2793 10.0441 28.8448 8.97199ZM20.4998 19.347C19.3161 19.3454 18.1521 19.0444 17.116 18.472C16.9153 18.3611 16.6825 18.3226 16.4568 18.3629C16.231 18.4031 16.026 18.5198 15.876 18.6932L8.8885 26.7857C8.51038 27.145 8.00688 27.3423 7.48536 27.3356C6.96383 27.3289 6.46555 27.1188 6.09675 26.75C5.72794 26.3812 5.5178 25.8829 5.51112 25.3614C5.50445 24.8399 5.70176 24.3364 6.061 23.9582L14.1473 16.972C14.321 16.8219 14.4379 16.6167 14.4781 16.3906C14.5184 16.1646 14.4797 15.9316 14.3685 15.7307C13.731 14.5778 13.4319 13.2684 13.5054 11.953C13.579 10.6376 14.0222 9.36965 14.7842 8.29493C15.5462 7.22022 16.596 6.38236 17.813 5.87768C19.0299 5.373 20.3646 5.22198 21.6635 5.44199L17.7635 9.66824C17.655 9.78596 17.5763 9.92801 17.5341 10.0824C17.4919 10.2369 17.4874 10.3992 17.521 10.5557L18.2285 13.847C18.269 14.0352 18.3629 14.2078 18.4991 14.3439C18.6352 14.4801 18.8078 14.574 18.996 14.6145L22.2898 15.322C22.4463 15.3556 22.6086 15.3511 22.7631 15.3089C22.9175 15.2667 23.0595 15.188 23.1773 15.0795L27.4035 11.1795C27.572 12.1833 27.5198 13.2117 27.2506 14.1932C26.9813 15.1748 26.5015 16.0859 25.8444 16.8632C25.1874 17.6405 24.3689 18.2654 23.4459 18.6943C22.5229 19.1232 21.5176 19.346 20.4998 19.347Z" fill="#6A6977"/>
</svg>
